<svg width="28" height="28" viewBox="0 0 28 28" fill="none" xmlns="http://www.w3.org/2000/svg">
<path fill-rule="evenodd" clip-rule="evenodd" d="M18.5852 18.0932C18.9242 18.5292 18.8456 19.1574 18.4096 19.4964C17.1613 20.4671 15.6276 20.9987 14.0463 21.0089C12.465 21.019 10.9246 20.5071 9.66392 19.5526C9.22362 19.2192 9.13694 18.592 9.47033 18.1517C9.80372 17.7114 10.4309 17.6247 10.8712 17.9581C11.7809 18.6469 12.8925 19.0163 14.0335 19.0089C15.1745 19.0016 16.2812 18.618 17.1819 17.9176C17.6179 17.5786 18.2462 17.6572 18.5852 18.0932Z" fill="currentColor"/>
<path d="M20 14.5C20 15.3284 19.3284 16 18.5 16C17.6716 16 17 15.3284 17 14.5C17 13.6716 17.6716 13 18.5 13C19.3284 13 20 13.6716 20 14.5Z" fill="currentColor"/>
<path d="M11 14.5C11 15.3284 10.3284 16 9.5 16C8.67157 16 8 15.3284 8 14.5C8 13.6716 8.67157 13 9.5 13C10.3284 13 11 13.6716 11 14.5Z" fill="currentColor"/>
<path fill-rule="evenodd" clip-rule="evenodd" d="M8.76979 4.12203C10.2439 3.31828 12.2852 2.5 15 2.5C17.474 2.5 19.384 3.06929 20.8439 3.97956C22.3021 4.88874 23.251 6.10049 23.8638 7.29297C24.4733 8.47924 24.7546 9.65372 24.8855 10.523C24.9513 10.9601 24.98 11.3266 24.9922 11.5881C24.9983 11.7191 25.0003 11.8242 25.0007 11.8994C25.0009 11.9369 25.0007 11.9671 25.0004 11.9892L24.9999 12.0163L24.9997 12.0253L24.9996 12.0286L24.9995 12.03C24.9995 12.0306 24.9995 12.0311 24 12L24.9995 12.0311L24.9396 13.9547L19.8485 10.1364C19.6917 10.1963 19.5029 10.2666 19.2846 10.3449C18.5883 10.5947 17.5901 10.9259 16.3708 11.2568C13.9379 11.9169 10.5967 12.5833 7.00397 12.5833C5.10055 12.5833 3.68658 12.1051 2.69629 11.2556C1.70779 10.4077 1.26498 9.29587 1.09435 8.26981C0.925037 7.25164 1.01253 6.26233 1.13135 5.55034C1.19158 5.18944 1.26193 4.88775 1.31807 4.67354C1.3462 4.56619 1.37094 4.48013 1.38934 4.41883C1.39855 4.38816 1.40618 4.36363 1.41188 4.34567L1.41894 4.3237L1.4213 4.31649L1.42217 4.31385L1.42253 4.31277C1.42269 4.3123 1.42284 4.31186 2.37148 4.6282L1.42253 4.31277L1.92546 2.80459L3.06564 3.90837C3.06576 3.90849 3.06545 3.9082 3.06564 3.90837L3.07583 3.91796C3.08581 3.92727 3.10265 3.9428 3.12595 3.96366C3.1726 4.00544 3.24477 4.06826 3.33921 4.14515C3.52901 4.29966 3.80379 4.50684 4.13805 4.71326C4.81107 5.12889 5.6322 5.48362 6.4437 5.49945C6.45964 5.49341 6.48432 5.48329 6.5188 5.46699C6.63691 5.41117 6.79464 5.3202 7.01768 5.18171C7.11249 5.12283 7.21684 5.05671 7.32983 4.98511C7.71914 4.73841 8.21112 4.42665 8.76979 4.12203ZM3.03635 6.38332C2.98705 6.86935 2.97938 7.41329 3.06726 7.94173C3.18578 8.65445 3.4666 9.28139 3.99842 9.73757C4.52846 10.1922 5.4315 10.5833 7.00397 10.5833C10.3631 10.5833 13.5198 9.95807 15.847 9.32657C17.0078 9.01159 17.9551 8.69701 18.6094 8.46236C18.9363 8.34508 19.1897 8.24794 19.3594 8.18092C19.4442 8.14741 19.5081 8.12145 19.5498 8.10429L19.5955 8.0853L19.6056 8.08106L19.607 8.08047L20.138 7.85351L22.6845 9.76337C22.549 9.26926 22.3568 8.73627 22.0849 8.20703C21.6057 7.27451 20.8837 6.36126 19.7858 5.67669C18.6896 4.99321 17.1584 4.5 15 4.5C12.7148 4.5 11.0042 5.18172 9.72723 5.87797C9.23232 6.14782 8.81698 6.41088 8.43447 6.65314C8.31099 6.73135 8.19093 6.80739 8.07272 6.88079C7.84282 7.02355 7.60245 7.16695 7.37345 7.27519C7.16114 7.37554 6.84998 7.5 6.5 7.5C5.13473 7.5 3.9141 6.9256 3.08718 6.41494C3.07011 6.40439 3.05317 6.39385 3.03635 6.38332Z" fill="currentColor"/>
<path fill-rule="evenodd" clip-rule="evenodd" d="M23 14C23 18.9706 18.9706 23 14 23C9.02944 23 5 18.9706 5 14C5 12.7592 5.2511 11.577 5.70525 10.5016C4.8956 10.3145 4.32153 9.98707 3.91681 9.59653C3.32715 10.9449 3 12.4342 3 14C3 20.0751 7.92487 25 14 25C20.0751 25 25 20.0751 25 14C25 7.92487 20.0751 3 14 3C10.4107 3 7.22293 4.7191 5.21512 7.37885C5.61283 7.47282 6.05022 7.53438 6.51362 7.53438C6.97261 7.53438 7.55551 7.1539 8.31183 6.66022C9.70866 5.74846 11.697 4.45061 14.5885 4.45061C22.2461 5.18236 22.6119 9.62507 22.6119 9.62507L21.3094 8.74784C22.3733 10.2259 23 12.0398 23 14Z" fill="currentColor"/>
<path d="M4.50062 13.0354C4.13572 13.0354 3.77523 13.1153 3.44447 13.2694C3.11371 13.4235 2.82069 13.6482 2.58597 13.9276C2.35125 14.207 2.18052 14.5344 2.08577 14.8868C1.99102 15.2391 1.97454 15.608 2.03749 15.9674C2.10043 16.3269 2.24128 16.6682 2.45015 16.9674C2.65901 17.2666 2.93084 17.5165 3.24653 17.6995C3.56223 17.8825 3.91416 17.9942 4.27761 18.0267C4.64106 18.0593 5.00723 18.0119 5.35041 17.8879L4.50062 15.5361L4.50062 13.0354Z" fill="currentColor"/>
<path d="M23.1194 17.9515C23.4719 18.0459 23.8408 18.0621 24.2001 17.9988C24.5595 17.9356 24.9007 17.7944 25.1997 17.5853C25.4988 17.3762 25.7484 17.1041 25.9311 16.7883C26.1139 16.4724 26.2252 16.1204 26.2575 15.7569C26.2897 15.3934 26.242 15.0273 26.1177 14.6842C25.9934 14.3411 25.7955 14.0294 25.5379 13.7709C25.2803 13.5125 24.9693 13.3135 24.6267 13.188C24.284 13.0625 23.9181 13.0135 23.5545 13.0445L23.7666 15.5361L23.1194 17.9515Z" fill="currentColor"/>
</svg>
