<svg width="25" height="25" viewBox="0 0 25 25" fill="none" xmlns="http://www.w3.org/2000/svg">
<path d="M17.4276 5.69623C17.8181 5.3057 18.4512 5.30571 18.8418 5.69623C19.2323 6.08675 19.2323 6.71992 18.8418 7.11044L7.52806 18.4241C7.13754 18.8147 6.50437 18.8147 6.11385 18.4241C5.72332 18.0336 5.72332 17.4005 6.11385 17.0099L17.4276 5.69623Z" fill="#1A1A1A"/>
<path d="M18.8418 17.01C19.2323 17.4005 19.2323 18.0337 18.8418 18.4242C18.4512 18.8147 17.8181 18.8147 17.4276 18.4242L6.11385 7.11049C5.72332 6.71996 5.72332 6.0868 6.11385 5.69627C6.50437 5.30575 7.13754 5.30575 7.52806 5.69627L18.8418 17.01Z" fill="#1A1A1A"/>
</svg>
