<svg width="25" height="25" viewBox="0 0 25 25" fill="none" xmlns="http://www.w3.org/2000/svg">
<path d="M3.47778 7.06012C3.47778 6.50783 3.9255 6.06012 4.47778 6.06012H20.4778C21.0301 6.06012 21.4778 6.50783 21.4778 7.06012C21.4778 7.6124 21.0301 8.06012 20.4778 8.06012H4.47778C3.9255 8.06012 3.47778 7.6124 3.47778 7.06012ZM3.47778 12.0601C3.47778 11.5078 3.9255 11.0601 4.47778 11.0601H20.4778C21.0301 11.0601 21.4778 11.5078 21.4778 12.0601C21.4778 12.6124 21.0301 13.0601 20.4778 13.0601H4.47778C3.9255 13.0601 3.47778 12.6124 3.47778 12.0601ZM3.47778 17.0601C3.47778 16.5078 3.9255 16.0601 4.47778 16.0601H20.4778C21.0301 16.0601 21.4778 16.5078 21.4778 17.0601C21.4778 17.6124 21.0301 18.0601 20.4778 18.0601H4.47778C3.9255 18.0601 3.47778 17.6124 3.47778 17.0601Z" fill="#1A1A1A"/>
</svg>
